# xmcd
#
# Track frame offsets:
#        150
#        28567
#        56865
#
# Disc length: 1006 seconds
#
# Revision: 0
# Processed by: cddbd v1.5.1PL0 Copyright (c) Steve Scherf et al.
# Submitted via: ExactAudioCopy v0.95a5
#
DISCID=2103ec03
DTITLE=Takkyu Ishino - Suck Me Disco
DYEAR=2001
DGENRE=Techno
TTITLE0=Suck Me Disco(Original)
TTITLE1=Suck Me Disco(Takkyu Remix)
TTITLE2=Suck Me Disco(Zombie Nation Version)
EXTD=
EXTT0=
EXTT1=
EXTT2=
PLAYORDER=
